<svg width="271" height="45" viewBox="0 0 271 45" fill="none" xmlns="http://www.w3.org/2000/svg">
<path fill-rule="evenodd" clip-rule="evenodd" d="M185.471 38.4223H185.952V5.77026H185.471V38.4223Z" fill="#8B1232"/>
<path fill-rule="evenodd" clip-rule="evenodd" d="M58.8927 24.4779C59.1217 24.8213 59.4423 24.9814 59.9002 25.0045C60.5185 25.0272 60.9077 24.4089 60.9077 24.4089L71.0972 11.3575C71.9444 10.4872 72.7687 11.1972 72.7687 11.1972C73.5701 12.0445 72.9748 12.8001 72.9748 12.8001L70.7079 15.7081V15.731C70.5018 15.9371 70.3873 16.2116 70.3873 16.5095C70.3873 16.784 70.4789 17.0361 70.6621 17.242L72.9519 20.1502L80.1417 10.9683L77.2566 7.28152L76.73 6.59459C76.272 5.93079 75.2187 5.77051 75.2187 5.77051H70.8911C69.7462 5.77051 69.128 6.57192 69.128 6.57192L57.0151 22.0965L58.8927 24.4779Z" fill="#8B1232"/>
<path fill-rule="evenodd" clip-rule="evenodd" d="M58.366 16.5093L55.4809 12.7999C54.8856 11.8611 55.7557 11.1742 55.7557 11.1742C56.8319 10.533 57.473 11.5176 57.473 11.5176L59.8773 14.5859L62.7166 10.9223L59.4422 6.70912C58.6637 5.58713 57.473 5.74742 57.473 5.74742H53.5575C52.2982 5.74742 51.7715 6.52594 51.7715 6.52594L48.314 10.8994L55.5267 20.15L58.366 16.5093Z" fill="#8B1232"/>
<path fill-rule="evenodd" clip-rule="evenodd" d="M69.5401 19.692C69.5401 19.692 69.1967 19.1653 68.5555 19.1882C67.8915 19.1882 67.6167 19.6462 67.6167 19.6462L57.3357 32.8581C56.5114 33.774 55.5955 33.0413 55.5955 33.0413C54.7941 32.1941 55.4581 31.4156 55.4581 31.4156L57.7708 28.4618V28.4389C57.9768 28.2328 58.0913 27.958 58.0913 27.6603C58.0913 27.3856 57.9997 27.1337 57.8165 26.9276L55.5268 24.0196L48.2911 33.2932L52.3211 38.3993L58.6638 38.4222L71.4177 22.0962L69.5401 19.692Z" fill="#8B1232"/>
<path fill-rule="evenodd" clip-rule="evenodd" d="M70.0667 27.6375L72.9976 31.3925C73.6617 32.3316 72.8144 33.0185 72.8144 33.0185C71.6925 33.7741 71.0055 32.6519 71.0055 32.6519L68.5555 29.5381L65.7162 33.2017L69.8149 38.4452L76.1117 38.4223L80.1417 33.2475L72.906 23.9968L70.0667 27.6375Z" fill="#8B1232"/>
<path fill-rule="evenodd" clip-rule="evenodd" d="M80.0958 19.2341C78.4701 19.2341 77.1649 20.5393 77.1649 22.1192C77.1649 23.6992 78.4701 25.0043 80.0958 25.0043C81.7215 25.0043 83.0267 23.6992 83.0267 22.1192C83.0267 20.5393 81.6986 19.2341 80.0958 19.2341M80.0958 23.6763C79.2486 23.6763 78.5617 22.9894 78.5617 22.1193C78.5617 21.2492 79.2486 20.5623 80.0958 20.5623C80.9431 20.5623 81.63 21.2492 81.63 22.1193C81.63 22.9894 80.9431 23.6763 80.0958 23.6763" fill="#8B1232"/>
<path fill-rule="evenodd" clip-rule="evenodd" d="M64.2049 5.7702C65.8307 5.7702 67.1358 4.46504 67.1358 2.8851C67.1358 1.30516 65.8078 0 64.2049 0C62.5792 0 61.274 1.30516 61.274 2.8851C61.274 4.46504 62.5792 5.7702 64.2049 5.7702M64.2049 1.32814C65.0522 1.32814 65.7391 2.01507 65.7391 2.88518C65.7391 3.75529 65.0522 4.44222 64.2049 4.44222C63.3577 4.44222 62.6708 3.75529 62.6708 2.88518C62.6708 2.01507 63.3577 1.32814 64.2049 1.32814" fill="#8B1232"/>
<path fill-rule="evenodd" clip-rule="evenodd" d="M51.1991 22.0963C51.1991 20.4934 49.894 19.2112 48.2682 19.2112C46.6425 19.2112 45.3373 20.5163 45.3373 22.0963C45.3373 23.6991 46.6425 24.9814 48.2682 24.9814C49.8711 25.0043 51.1991 23.6991 51.1991 22.0963M46.7341 22.0964C46.7341 21.2491 47.4211 20.5393 48.2683 20.5393C49.1155 20.5393 49.8024 21.2263 49.8024 22.0964C49.8024 22.9436 49.1155 23.6534 48.2683 23.6534C47.4211 23.6534 46.7341 22.9665 46.7341 22.0964" fill="#8B1232"/>
<path fill-rule="evenodd" clip-rule="evenodd" d="M64.2049 38.4451C62.5792 38.4451 61.274 39.75 61.274 41.3302C61.274 42.9101 62.5792 44.215 64.2049 44.215C65.8307 44.215 67.1358 42.9101 67.1358 41.3302C67.1358 39.75 65.8078 38.4451 64.2049 38.4451M64.2049 42.887C63.3577 42.887 62.6708 42.2001 62.6708 41.3302C62.6708 40.4828 63.3577 39.7732 64.2049 39.7732C65.0522 39.7732 65.7391 40.4601 65.7391 41.3302C65.7391 42.1774 65.0522 42.887 64.2049 42.887" fill="#8B1232"/>
<mask id="mask0_524_10" style="mask-type:alpha" maskUnits="userSpaceOnUse" x="0" y="2" width="34" height="40">
<path fill-rule="evenodd" clip-rule="evenodd" d="M0 2.8623H33.6366V41.3303H0V2.8623Z" fill="white"/>
</mask>
<g mask="url(#mask0_524_10)">
<path fill-rule="evenodd" clip-rule="evenodd" d="M32.8123 3.68663V25.302C32.8123 27.9123 31.988 30.3395 30.3623 32.4918C29.0342 34.2549 27.1795 35.8349 24.8439 37.2087C21.2719 39.3153 17.6312 40.2999 16.8069 40.4831C16.0054 40.277 12.3876 39.3153 8.81559 37.2316C6.45714 35.8578 4.60243 34.2778 3.27437 32.5147C1.64864 30.3624 0.824323 27.9352 0.824323 25.302V3.68663H32.8123ZM33.6366 2.8623H0V25.302C0 37.6209 16.8069 41.3303 16.8069 41.3303H16.8298C16.8298 41.3303 33.6366 37.6209 33.6366 25.302V2.8623Z" fill="#B18147"/>
</g>
<path fill-rule="evenodd" clip-rule="evenodd" d="M20.8827 10.052V7.99121H18.7761V9.91461H17.9518V7.99121H15.7765V9.91461H14.9522V7.99121H12.7998V10.052L13.8531 11.8609C13.8989 11.9296 13.8989 11.9983 13.8989 12.067V21.5008H14.9293V18.112C14.9293 17.3105 15.8452 16.5778 16.8298 16.5778C17.8373 16.5778 18.7303 17.3105 18.7303 18.112V21.5008H19.7836V17.9288V17.883V16.1199V16.097V14.8147V14.2423V12.0899C19.7836 12.0212 19.8065 11.9525 19.8523 11.8838L20.8827 10.052Z" fill="#B18147"/>
<path fill-rule="evenodd" clip-rule="evenodd" d="M13.0746 21.73V18.593L12.7082 18.822C12.5708 18.9136 12.3876 18.8907 12.2732 18.7991L11.8152 18.4785V18.5243L11.7923 19.7379C11.7923 19.8753 11.7236 19.9898 11.632 20.0585C11.6778 20.0813 11.7236 20.1042 11.7694 20.1271C12.3189 20.5622 12.3647 21.2033 12.2503 21.7071H13.0746V21.73Z" fill="#B18147"/>
<path fill-rule="evenodd" clip-rule="evenodd" d="M16.8068 17.425C16.1657 17.425 15.7307 17.883 15.7307 18.112V21.5008H17.883V18.112C17.9059 17.8601 17.448 17.425 16.8068 17.425" fill="#B18147"/>
<path fill-rule="evenodd" clip-rule="evenodd" d="M4.21315 21.7298C4.09866 21.4779 4.00707 21.1574 3.93838 20.7681C3.82389 20.1041 3.84679 19.5087 3.84679 19.4858C3.84679 19.3027 3.96127 19.1653 4.14445 19.0966L5.03746 18.8218L4.00707 18.0891C3.89258 18.0204 3.82389 17.883 3.82389 17.7456V16.6007C3.82389 16.4405 3.91548 16.3031 4.05286 16.2344L4.44212 16.0283V15.639L4.12156 15.5245C3.96127 15.4559 3.86968 15.3185 3.86968 15.1353V13.7614C3.86968 13.5325 4.05286 13.3493 4.28184 13.3493L5.56411 13.3264C5.54121 12.9829 5.54121 12.525 5.6099 12.1357C5.72439 11.6091 6.02206 11.0595 6.15945 10.8076L6.09075 10.3268C6.06785 10.2123 6.11365 10.0978 6.18234 10.0062C6.25104 9.91463 6.36552 9.86883 6.50291 9.86883H7.18984C7.25853 9.86883 7.35012 9.89173 7.41881 9.93753L9.09034 11.0137H9.84596C9.96045 11.0137 10.0749 11.0595 10.1436 11.1511C10.2123 11.2427 10.2581 11.3343 10.2581 11.4488L10.1894 12.7768C10.1894 12.8913 10.1436 12.9829 10.052 13.0745H10.5558C10.6703 13.0745 10.7848 13.1203 10.8535 13.2119L11.0824 13.4638L11.2656 13.3264L11.5633 12.7081C11.632 12.5708 11.7694 12.4792 11.9296 12.4792H13.0287V12.2502L11.9754 10.4413C11.9296 10.3726 11.9296 10.3039 11.9296 10.2352V7.57907C11.9296 7.3501 12.1128 7.16692 12.3418 7.16692H14.9063H15.7307H17.9059H18.776H21.3177C21.5466 7.16692 21.7298 7.3501 21.7298 7.57907V10.1665C21.7298 10.2352 21.7069 10.3039 21.6611 10.3726L20.6078 12.1815V12.4105H21.7069C21.8672 12.4105 22.0046 12.5021 22.0733 12.6394L22.371 13.2577L22.5541 13.3951L22.7831 13.1432C22.8518 13.0516 22.9663 13.0058 23.0808 13.0058H23.5845C23.5158 12.9371 23.4472 12.8226 23.4472 12.7081L23.3785 11.3801C23.3785 11.2656 23.4243 11.1511 23.4929 11.0824C23.5616 10.9908 23.6761 10.945 23.7906 10.945H24.5691L26.2407 9.86883C26.3094 9.82304 26.378 9.80014 26.4696 9.80014H27.1566C27.2711 9.80014 27.3855 9.84594 27.4771 9.93753C27.5458 10.0291 27.5916 10.1436 27.5687 10.2581L27.5 10.7389C27.6374 10.9908 27.9351 11.5404 28.0496 12.067C28.1412 12.4563 28.1183 12.9142 28.0954 13.2577L29.3776 13.2806C29.6066 13.2806 29.7898 13.4638 29.7898 13.6927V15.0666C29.7898 15.2269 29.6982 15.3872 29.5379 15.4559L29.1716 15.5932V15.9825L29.5608 16.1886C29.6982 16.2573 29.7898 16.3947 29.7898 16.5549V17.6998C29.7898 17.8372 29.7211 17.9517 29.6066 18.0433L28.5762 18.776L29.4921 19.0508C29.6524 19.0966 29.7669 19.2569 29.7898 19.44C29.7898 19.4629 29.8127 20.0583 29.6982 20.7223C29.6295 21.0887 29.5608 21.4092 29.4234 21.684H30.9347H30.9576V5.72437H2.7019V21.7069H4.21315V21.7298Z" fill="#B18147"/>
<path fill-rule="evenodd" clip-rule="evenodd" d="M21.8901 20.1272C21.9359 20.1043 21.9817 20.0814 22.0275 20.0585C21.9359 19.9898 21.8672 19.8753 21.8672 19.7379V18.5473V18.5015L21.4093 18.822C21.2719 18.9136 21.1116 18.9136 20.9513 18.8449L20.6078 18.616V21.73H21.4322C21.3177 21.2034 21.3406 20.5851 21.8901 20.1272" fill="#B18147"/>
<path fill-rule="evenodd" clip-rule="evenodd" d="M27.3856 30.2708C27.1566 30.2708 26.9734 30.0877 26.9734 29.8587V27.1565C26.9734 26.9507 26.8589 26.6986 26.6758 26.5156C26.5155 26.3551 26.2407 26.1722 25.8286 26.1951C25.1874 26.1951 24.8211 26.6986 24.7524 27.1797V29.8587C24.7524 29.9732 24.7066 30.0648 24.6379 30.1564C24.5692 30.225 24.4547 30.2708 24.3402 30.2708H21.8902C21.6612 30.2708 21.478 30.0877 21.478 29.8587V27.1565C21.478 26.9507 21.3635 26.6986 21.1574 26.5156C20.9972 26.3551 20.7224 26.1722 20.3102 26.1951C20.0355 26.1951 19.7836 26.3096 19.6004 26.4696L21.6154 36.7735C24.4547 35.5142 27.8206 33.4534 29.6525 30.2708H27.3856Z" fill="#B18147"/>
<path fill-rule="evenodd" clip-rule="evenodd" d="M20.8139 37.0484L17.9746 22.5542H15.6848L12.8455 37.0484C12.8455 37.0715 12.8455 37.0942 12.8226 37.1171C14.7918 37.9185 16.3947 38.3309 16.8526 38.468C17.3106 38.3309 18.8905 37.9185 20.8597 37.1171C20.8368 37.0942 20.8368 37.0715 20.8139 37.0484" fill="#B18147"/>
<path fill-rule="evenodd" clip-rule="evenodd" d="M14.0591 26.4696C13.8759 26.3096 13.6241 26.1951 13.3493 26.1951H13.3264C12.9142 26.1951 12.6624 26.3782 12.5021 26.5385C12.3189 26.7217 12.2044 26.9734 12.2044 27.1797V29.8814C12.2044 30.1103 12.0212 30.2935 11.7923 30.2935H9.34221C9.22772 30.2935 9.13613 30.2477 9.04454 30.179C8.97584 30.1103 8.93005 29.9958 8.93005 29.8814V27.2023C8.88425 26.7217 8.49499 26.2177 7.85386 26.2177H7.83096C7.41881 26.2177 7.16693 26.4009 7.00665 26.5612C6.82347 26.7444 6.70898 26.9965 6.70898 27.2023V29.9043C6.70898 30.1332 6.5258 30.3166 6.29682 30.3166H4.05286C5.86177 33.4992 9.22772 35.56 12.067 36.8193L14.0591 26.4696Z" fill="#B18147"/>
<path fill-rule="evenodd" clip-rule="evenodd" d="M30.9576 22.5542H18.8219L19.4172 25.5996C19.692 25.4622 19.9897 25.3706 20.2873 25.3706C20.8369 25.3706 21.3406 25.5538 21.7299 25.943C22.0734 26.2865 22.2794 26.7445 22.2794 27.1566V29.4464H23.9052V27.1566V27.1108C23.9968 26.1262 24.7982 25.3706 25.7828 25.3477C26.3323 25.3477 26.8361 25.5309 27.2253 25.9201C27.5688 26.2636 27.7749 26.7216 27.7749 27.1337V29.4235H30.0417C30.6142 28.187 30.9347 26.7903 30.9347 25.2103L30.9576 22.5542" fill="#B18147"/>
<path fill-rule="evenodd" clip-rule="evenodd" d="M5.86184 29.4463V27.1565C5.86184 26.7217 6.06792 26.2864 6.41138 25.9429C6.80064 25.5768 7.30439 25.3705 7.85393 25.3705C8.83853 25.3936 9.63994 26.1492 9.73154 27.1336V27.1796V29.4694H11.3573V27.1796C11.3573 26.7443 11.5633 26.3095 11.9068 25.966C12.2961 25.5995 12.7998 25.3936 13.3494 25.3936C13.647 25.3936 13.9447 25.485 14.2195 25.6226L14.8148 22.6001H2.70197V25.2791C2.70197 26.8588 3.04543 28.2558 3.59497 29.4921H5.86184V29.4463Z" fill="#B18147"/>
<path fill-rule="evenodd" clip-rule="evenodd" d="M6.84642 20.8598H7.51045C7.55624 20.9514 7.60204 21.043 7.60204 21.1346V21.2949C7.60204 21.4323 7.57914 21.5925 7.55624 21.707H5.19779C4.85432 21.478 4.69404 20.5621 4.67114 19.8065L5.70154 19.486C5.88472 19.4402 5.9992 19.2799 5.9992 19.0967V18.7074C5.9992 18.5701 5.93051 18.4556 5.81602 18.364L4.67114 17.5626V16.8756L5.0604 16.6695C5.19779 16.6009 5.28938 16.4635 5.28938 16.3032V15.3873C5.28938 15.227 5.19779 15.0667 5.0375 14.998L4.67114 14.8606V14.1737H5.74733L6.25108 15.0209V16.1887L5.90761 17.3107C5.86182 17.4481 5.88472 17.5626 5.97631 17.677C6.045 17.7915 6.18239 17.8373 6.31977 17.8373H6.64034C6.84642 17.8373 7.0067 17.6999 7.0525 17.4939C7.07539 17.3107 7.18988 16.784 7.28147 16.5551C7.35016 16.3719 7.64783 15.9826 7.83101 15.7536C7.9684 15.5934 7.9684 15.3644 7.83101 15.227L6.41136 13.6013C6.38846 13.3494 6.34267 12.777 6.41136 12.3648C6.50295 11.9068 6.82352 11.3573 6.93801 11.1741C6.9838 11.0825 7.0067 10.9909 6.9838 10.8993L6.9609 10.762H7.0525L8.72402 11.8382C8.79271 11.8839 8.86141 11.9068 8.953 11.9068H9.41095L9.38805 12.4335L8.83851 12.6396C8.67823 12.7083 8.56374 12.8456 8.56374 13.0288V13.4639C8.56374 13.6929 8.74692 13.876 8.9759 13.876H10.3955L10.7619 14.2653C10.8993 14.4256 11.1512 14.4256 11.3115 14.3111C11.3115 14.3111 11.9526 13.8073 11.9755 13.7387L12.2045 13.2578H13.0517V14.2195V14.7461C13.0517 14.7461 11.5404 15.2728 11.4259 15.3186C11.3344 15.3644 11.2657 15.8452 11.2886 15.9368C11.3115 16.0513 11.2886 16.0971 11.4717 16.2116C11.4717 16.2116 11.9068 16.5551 12.0442 16.6009L12.4792 16.1887L13.0517 16.2574V17.6541L12.5021 17.9976L10.7619 16.784C10.5787 16.6695 10.3269 16.6924 10.2124 16.8756L9.9376 17.2191C9.80021 17.3794 9.82311 17.6312 9.98339 17.7686L10.968 18.7074V19.4631L9.96049 19.8981C9.80021 19.9668 9.70862 20.1042 9.70862 20.2874V20.4477C9.70862 20.6766 9.8918 20.8598 10.1208 20.8598H11.3115C11.5175 21.1117 11.4259 21.478 11.3572 21.707H8.60953C8.51794 21.6154 8.47215 21.4323 8.44925 21.2491V21.0888C8.44925 20.8369 8.47215 20.5621 8.51794 20.4019L9.15908 19.5775C9.20487 19.5089 9.25067 19.4173 9.25067 19.3486L9.27356 18.9593C9.27356 18.8219 9.20487 18.6845 9.09038 18.5929C8.9759 18.5014 8.81561 18.5014 8.70112 18.5472L7.67073 18.9593C7.53335 19.0051 7.44175 19.1425 7.41886 19.2799L7.32727 19.7149L6.73193 19.8981C6.54875 19.9439 6.43426 20.1042 6.43426 20.2874V20.4477C6.41136 20.6766 6.61744 20.8598 6.84642 20.8598" fill="#B18147"/>
<path fill-rule="evenodd" clip-rule="evenodd" d="M26.8131 20.8598H26.1491C26.1033 20.9514 26.0575 21.043 26.0575 21.1346V21.2949C26.0575 21.4323 26.0804 21.5925 26.1033 21.707H28.4617C28.8052 21.478 28.9655 20.5621 28.9884 19.8065L27.958 19.486C27.7748 19.4402 27.6603 19.2799 27.6603 19.0967V18.7074C27.6603 18.5701 27.729 18.4556 27.8435 18.364L28.9884 17.5626V16.8756L28.5991 16.6695C28.4617 16.6009 28.3701 16.4635 28.3701 16.3032V15.3873C28.3701 15.227 28.4617 15.0667 28.622 14.998L28.9884 14.8606V14.1737H27.9122L27.4084 15.0209V16.1887L27.7519 17.3107C27.7977 17.4481 27.7748 17.5626 27.6832 17.677C27.6145 17.7915 27.4771 17.8373 27.3397 17.8373H27.0192C26.8131 17.8373 26.6528 17.6999 26.607 17.4939C26.5841 17.3107 26.4696 16.784 26.378 16.5551C26.3094 16.3719 26.0117 15.9826 25.8285 15.7536C25.6911 15.5934 25.6911 15.3644 25.8285 15.227L27.2482 13.6013C27.2711 13.3494 27.3169 12.777 27.2482 12.3648C27.1566 11.9068 26.836 11.3573 26.7215 11.1741C26.6757 11.0825 26.6528 10.9909 26.6757 10.8993L26.6986 10.762H26.607L24.9355 11.8382C24.8668 11.8839 24.7981 11.9068 24.7065 11.9068H24.2486L24.2715 12.5251L24.821 12.7312C24.9813 12.7999 25.0958 12.9372 25.0958 13.1204V13.5555C25.0958 13.7844 24.9126 13.9676 24.6836 13.9676H23.264L22.8976 14.3569C22.7602 14.5172 22.5084 14.5172 22.3481 14.4027C22.3481 14.4027 21.7069 13.8989 21.684 13.8302L21.4551 13.3494H20.6078V14.3111V14.8377C20.6078 14.8377 22.1191 15.3644 22.2336 15.4102C22.3252 15.456 22.3939 15.9368 22.371 16.0284C22.3481 16.1429 22.371 16.1887 22.1878 16.3032C22.1878 16.3032 21.7527 16.6467 21.6153 16.6924L21.1803 16.2803L20.6078 16.2574V17.6541L21.1574 17.9976L22.8976 16.8069C23.0808 16.6924 23.3327 16.7153 23.4472 16.8985L23.7219 17.242C23.8593 17.4023 23.8364 17.6541 23.6761 17.7915L22.6915 18.7303V19.486L23.699 19.921C23.8593 19.9897 23.9509 20.1271 23.9509 20.3103V20.4706C23.9509 20.6995 23.7677 20.8827 23.5387 20.8827H22.3481C22.142 21.1346 22.2336 21.5009 22.3023 21.7299H25.0729C25.1645 21.6383 25.2103 21.4552 25.2332 21.272V21.1117C25.2332 20.8598 25.2103 20.585 25.1645 20.4248L24.5233 19.6004C24.4775 19.5318 24.4318 19.4402 24.4318 19.3715L24.4089 18.9822C24.4089 18.8448 24.4775 18.7074 24.592 18.6158C24.7065 18.5243 24.8668 18.5243 24.9813 18.5701L26.0117 18.9822C26.1491 19.028 26.2407 19.1654 26.2636 19.3028L26.3323 19.7149L26.9276 19.8981C27.1108 19.9439 27.2253 20.1042 27.2253 20.2874V20.4477C27.2253 20.6766 27.0421 20.8598 26.8131 20.8598" fill="#B18147"/>
<path fill-rule="evenodd" clip-rule="evenodd" d="M91.8654 17.1962V17.1962C91.8654 15.6162 93.0102 14.2195 94.7505 14.2195C95.7122 14.2195 96.3075 14.4943 96.8799 14.9751L96.4678 15.456C96.0327 15.0667 95.529 14.7919 94.7276 14.7919C93.4682 14.7919 92.5523 15.8681 92.5523 17.1504V17.1733C92.5523 18.5471 93.4224 19.5546 94.8191 19.5546C95.4832 19.5546 96.0785 19.3028 96.4678 18.9822V17.5625H94.7276V16.9901H97.086V19.2799C96.5594 19.7607 95.758 20.15 94.7734 20.15C92.9873 20.15 91.8654 18.8448 91.8654 17.1962" fill="#8B1232"/>
<path fill-rule="evenodd" clip-rule="evenodd" d="M99.2154 17.1959V17.1959C99.2154 15.5931 100.406 14.2192 102.146 14.2192C103.886 14.2192 105.054 15.5931 105.054 17.173V17.1959C105.054 18.7759 103.864 20.1497 102.123 20.1497C100.383 20.1497 99.2154 18.7759 99.2154 17.1959M104.39 17.1961V17.1961C104.39 15.868 103.429 14.8147 102.123 14.8147C100.818 14.8147 99.8794 15.868 99.8794 17.1732V17.1961C99.8794 18.5012 100.818 19.5545 102.146 19.5545C103.474 19.5545 104.39 18.5012 104.39 17.1961" fill="#8B1232"/>
<path fill-rule="evenodd" clip-rule="evenodd" d="M107.367 14.311H109.817C110.481 14.311 110.985 14.4942 111.305 14.8148C111.534 15.0667 111.672 15.3643 111.672 15.7307V15.7536C111.672 16.5092 111.214 16.8756 110.756 17.0816C111.443 17.2877 111.992 17.677 111.992 18.4555V18.4784C111.992 19.463 111.168 20.0354 109.909 20.0354H107.367V14.311ZM111.031 15.8451C111.031 15.2727 110.573 14.9063 109.771 14.9063H108.031V16.8755H109.725C110.481 16.8755 111.031 16.532 111.031 15.8451V15.8451ZM109.817 17.448H108.008V19.463H109.931C110.802 19.463 111.328 19.0737 111.328 18.4326V18.4097C111.351 17.8143 110.824 17.448 109.817 17.448V17.448Z" fill="#8B1232"/>
<path fill-rule="evenodd" clip-rule="evenodd" d="M114.305 20.0354H114.946V14.311H114.305V20.0354Z" fill="#8B1232"/>
<path fill-rule="evenodd" clip-rule="evenodd" d="M117.579 14.311H121.724V14.9064H118.22V16.8756H121.357V17.448H118.22V19.463H121.77V20.0583H117.579V14.311Z" fill="#8B1232"/>
<path fill-rule="evenodd" clip-rule="evenodd" d="M123.899 14.311H126.372C127.082 14.311 127.631 14.5171 127.998 14.8835C128.272 15.1582 128.433 15.5704 128.433 16.0055V16.0284C128.433 16.9672 127.769 17.5396 126.876 17.6999L128.639 20.0354H127.837L126.166 17.8144H124.563V20.0354H123.922V14.311H123.899ZM126.326 17.2419C127.196 17.2419 127.792 16.8068 127.792 16.0512V16.0283C127.792 15.3185 127.242 14.9063 126.326 14.9063H124.563V17.2419H126.326Z" fill="#8B1232"/>
<path fill-rule="evenodd" clip-rule="evenodd" d="M130.768 14.311H131.387L134.982 18.9135V14.311H135.623V20.0583H135.096L131.41 15.3414V20.0583H130.768V14.311Z" fill="#8B1232"/>
<path fill-rule="evenodd" clip-rule="evenodd" d="M137.935 17.1959V17.1959C137.935 15.5931 139.126 14.2192 140.866 14.2192C142.606 14.2192 143.774 15.5931 143.774 17.173V17.1959C143.774 18.7759 142.583 20.1497 140.843 20.1497C139.103 20.1497 137.935 18.7759 137.935 17.1959M143.11 17.1961V17.1961C143.11 15.868 142.148 14.8147 140.843 14.8147C139.538 14.8147 138.599 15.868 138.599 17.1732V17.1961C138.599 18.5012 139.538 19.5545 140.866 19.5545C142.171 19.5545 143.11 18.5012 143.11 17.1961" fill="#8B1232"/>
<path fill-rule="evenodd" clip-rule="evenodd" d="M149.086 14.311H151.078C152.888 14.311 154.124 15.5475 154.124 17.1503V17.1732C154.124 18.7761 152.888 20.0354 151.078 20.0354H149.086V14.311ZM149.728 14.9063V19.4629H151.078C152.521 19.4629 153.46 18.4783 153.46 17.219V17.1961C153.46 15.9367 152.544 14.9292 151.078 14.9292H149.728V14.9063Z" fill="#8B1232"/>
<path fill-rule="evenodd" clip-rule="evenodd" d="M156.185 14.311H160.306V14.9064H156.826V16.8756H159.94V17.448H156.826V19.463H160.352V20.0583H156.185V14.311Z" fill="#8B1232"/>
<path fill-rule="evenodd" clip-rule="evenodd" d="M165.504 14.311H166.145V19.463H169.374V20.0583H165.504V14.311Z" fill="#8B1232"/>
<path fill-rule="evenodd" clip-rule="evenodd" d="M173.358 14.2881H173.953L176.563 20.0583H175.877L175.213 18.547H172.098L171.411 20.0583H170.748L173.358 14.2881ZM174.961 17.9515L173.656 15.0435L172.351 17.9515H174.961Z" fill="#8B1232"/>
<path fill-rule="evenodd" clip-rule="evenodd" d="M91.7508 27.0192V27.0192C91.7508 25.3705 92.9873 24.0425 94.7504 24.0425C95.8266 24.0425 96.4677 24.4088 97.0172 24.9355L96.2158 25.8514C95.7808 25.4392 95.3228 25.2103 94.7504 25.2103C93.7887 25.2103 93.0789 26.0117 93.0789 26.9963V27.0192C93.0789 28.0038 93.7658 28.8281 94.7504 28.8281C95.4144 28.8281 95.8037 28.5762 96.2616 28.1641L97.063 28.9655C96.4677 29.6066 95.8266 29.9959 94.7046 29.9959C93.0102 29.973 91.7508 28.6678 91.7508 27.0192" fill="#8B1232"/>
<path fill-rule="evenodd" clip-rule="evenodd" d="M98.0705 29.8814H99.3298V24.157H98.0705V29.8814Z" fill="#8B1232"/>
<path fill-rule="evenodd" clip-rule="evenodd" d="M100.795 27.4313V24.157H102.055V27.4084C102.055 28.3472 102.513 28.8283 103.291 28.8283C104.07 28.8283 104.528 28.3704 104.528 27.4545V24.1799H105.787V27.4084C105.787 29.1487 104.802 29.9959 103.268 29.9959C101.734 29.9732 100.795 29.1029 100.795 27.4313" fill="#8B1232"/>
<path fill-rule="evenodd" clip-rule="evenodd" d="M107.23 24.157H109.473C111.282 24.157 112.519 25.3935 112.519 26.9963V27.0192C112.519 28.622 111.282 29.8814 109.473 29.8814H107.23V24.157ZM109.474 28.7364C110.504 28.7364 111.191 28.0495 111.191 27.0191C111.191 26.0116 110.504 25.3018 109.474 25.3018H108.489V28.7593H109.474V28.7364Z" fill="#8B1232"/>
<path fill-rule="evenodd" clip-rule="evenodd" d="M115.312 24.1113H116.48L118.93 29.8815H117.602L117.076 28.5995H114.648L114.122 29.8815H112.839L115.312 24.1113ZM116.618 27.4772L115.862 25.6227L115.106 27.4772H116.618Z" fill="#8B1232"/>
<path fill-rule="evenodd" clip-rule="evenodd" d="M119.823 24.157H122.067C123.876 24.157 125.113 25.3935 125.113 26.9963V27.0192C125.113 28.622 123.876 29.8814 122.067 29.8814H119.823V24.157ZM122.067 28.7364C123.098 28.7364 123.785 28.0495 123.785 27.0191C123.785 26.0116 123.098 25.3018 122.067 25.3018H121.083V28.7593H122.067V28.7364Z" fill="#8B1232"/>
<path fill-rule="evenodd" clip-rule="evenodd" d="M128.776 24.157H131.02C132.829 24.157 134.066 25.3935 134.066 26.9963V27.0192C134.066 28.622 132.829 29.8814 131.02 29.8814H128.776V24.157ZM131.02 28.7364C132.051 28.7364 132.737 28.0495 132.737 27.0191C132.737 26.0116 132.051 25.3018 131.02 25.3018H130.036V28.7593H131.02V28.7364Z" fill="#8B1232"/>
<path fill-rule="evenodd" clip-rule="evenodd" d="M135.256 24.157H139.584V25.279H136.516V26.4238H139.218V27.5458H136.516V28.7594H139.63V29.8814H135.256V24.157Z" fill="#8B1232"/>
<path fill-rule="evenodd" clip-rule="evenodd" d="M143.27 24.157H144.644L146.156 26.5612L147.644 24.157H149.018V29.8814H147.758V26.1262L146.156 28.5762H146.11L144.507 26.172V29.8814H143.27V24.157Z" fill="#8B1232"/>
<path fill-rule="evenodd" clip-rule="evenodd" d="M150.506 24.157H154.834V25.279H151.765V26.4467H154.467V27.5687H151.765V28.7823H154.88V29.9043H150.506V24.157ZM152.91 22.2565L153.986 22.7145L152.933 23.6991H151.971L152.91 22.2565Z" fill="#8B1232"/>
<path fill-rule="evenodd" clip-rule="evenodd" d="M157.696 26.9734L155.773 24.157H157.238L158.452 26.0117L159.665 24.157H161.085L159.184 26.9505L161.176 29.8814H159.711L158.406 27.9124L157.124 29.8814H155.681L157.696 26.9734Z" fill="#8B1232"/>
<path fill-rule="evenodd" clip-rule="evenodd" d="M162.138 29.8814H163.397V24.157H162.138V29.8814Z" fill="#8B1232"/>
<path fill-rule="evenodd" clip-rule="evenodd" d="M164.634 27.0192V27.0192C164.634 25.3705 165.87 24.0425 167.633 24.0425C168.71 24.0425 169.351 24.4088 169.9 24.9355L169.099 25.8514C168.664 25.4392 168.206 25.2103 167.633 25.2103C166.672 25.2103 165.962 26.0117 165.962 26.9963V27.0192C165.962 28.0038 166.649 28.8281 167.633 28.8281C168.298 28.8281 168.687 28.5762 169.145 28.1641L169.946 28.9655C169.351 29.6066 168.71 29.9959 167.588 29.9959C165.87 29.973 164.634 28.6678 164.634 27.0192" fill="#8B1232"/>
<path fill-rule="evenodd" clip-rule="evenodd" d="M170.519 27.0192V27.0192C170.519 25.3705 171.801 24.0425 173.564 24.0425C175.327 24.0425 176.609 25.3705 176.609 26.9963V27.0192C176.609 28.6449 175.327 29.973 173.564 29.973C171.778 29.973 170.519 28.6678 170.519 27.0192M175.281 27.0193V27.0193C175.281 26.0118 174.571 25.2103 173.541 25.2103C172.534 25.2103 171.824 26.0118 171.824 26.9964V27.0193C171.824 28.0039 172.534 28.8282 173.564 28.8282C174.571 28.8053 175.281 28.0039 175.281 27.0193" fill="#8B1232"/>
<path d="M192.703 20H193.993V18.2413H194.973C196.288 18.2413 197.343 17.5379 197.343 16.1812V16.1644C197.343 14.9669 196.497 14.1378 195.099 14.1378H192.703V20ZM193.993 17.094V15.3018H194.99C195.635 15.3018 196.037 15.6117 196.037 16.1895V16.2063C196.037 16.7088 195.66 17.094 195.015 17.094H193.993ZM200.977 20.1005C202.786 20.1005 204.101 18.7354 204.101 17.0689V17.0521C204.101 15.3856 202.803 14.0373 200.994 14.0373C199.185 14.0373 197.87 15.4023 197.87 17.0689V17.0856C197.87 18.7522 199.168 20.1005 200.977 20.1005ZM200.994 18.9113C199.956 18.9113 199.219 18.0738 199.219 17.0689V17.0521C199.219 16.0472 199.939 15.2265 200.977 15.2265C202.016 15.2265 202.753 16.0639 202.753 17.0689V17.0856C202.753 18.0906 202.033 18.9113 200.994 18.9113ZM205.078 20H206.367V18.1241H207.381L208.637 20H210.144L208.712 17.9063C209.458 17.63 209.968 17.0354 209.968 16.0891V16.0723C209.968 15.5196 209.793 15.059 209.466 14.7324C209.081 14.3471 208.503 14.1378 207.757 14.1378H205.078V20ZM206.367 16.9851V15.3018H207.649C208.277 15.3018 208.662 15.5866 208.662 16.1393V16.156C208.662 16.6502 208.302 16.9851 207.674 16.9851H206.367ZM212.327 20H213.617V15.327H215.401V14.1378H210.543V15.327H212.327V20ZM214.97 20H216.285L216.821 18.6852H219.3L219.836 20H221.184L218.672 14.0959H217.483L214.97 20ZM217.282 17.5462L218.06 15.6452L218.839 17.5462H217.282ZM221.921 20H226.134V18.8276H223.211V14.1378H221.921V20ZM229.282 20H231.569C233.411 20 234.684 18.7187 234.684 17.0689V17.0521C234.684 15.4023 233.411 14.1378 231.569 14.1378H229.282V20ZM230.572 18.8359V15.3018H231.569C232.624 15.3018 233.336 16.0304 233.336 17.0689V17.0856C233.336 18.1241 232.624 18.8359 231.569 18.8359H230.572ZM235.666 20H240.129V18.8527H236.947V17.6216H239.711V16.4743H236.947V15.2851H240.087V14.1378H235.666V20ZM192.703 30H194.99C196.832 30 198.105 28.7187 198.105 27.0689V27.0521C198.105 25.4023 196.832 24.1378 194.99 24.1378H192.703V30ZM193.993 28.8359V25.3018H194.99C196.045 25.3018 196.757 26.0304 196.757 27.0689V27.0856C196.757 28.1241 196.045 28.8359 194.99 28.8359H193.993ZM198.167 30H199.482L200.018 28.6852H202.497L203.033 30H204.381L201.869 24.0959H200.68L198.167 30ZM200.479 27.5462L201.257 25.6452L202.036 27.5462H200.479ZM205.731 30H207.021V25.327H208.805V24.1378H203.947V25.327H205.731V30ZM212.223 30.1005C214.032 30.1005 215.347 28.7354 215.347 27.0689V27.0521C215.347 25.3856 214.049 24.0373 212.24 24.0373C210.431 24.0373 209.116 25.4023 209.116 27.0689V27.0856C209.116 28.7522 210.414 30.1005 212.223 30.1005ZM212.24 28.9113C211.201 28.9113 210.464 28.0738 210.464 27.0689V27.0521C210.464 26.0472 211.184 25.2265 212.223 25.2265C213.261 25.2265 213.998 26.0639 213.998 27.0689V27.0856C213.998 28.0906 213.278 28.9113 212.24 28.9113ZM218.368 30.0837C219.632 30.0837 220.52 29.4305 220.52 28.2665V28.2497C220.52 27.228 219.85 26.8009 218.661 26.491C217.647 26.2314 217.396 26.1058 217.396 25.7206V25.7038C217.396 25.4191 217.656 25.193 218.15 25.193C218.644 25.193 219.155 25.4107 219.674 25.7708L220.344 24.7994C219.749 24.322 219.021 24.054 218.167 24.054C216.969 24.054 216.115 24.7575 216.115 25.8211V25.8378C216.115 27.0019 216.877 27.3285 218.058 27.63C219.038 27.8812 219.239 28.0487 219.239 28.3753V28.3921C219.239 28.7354 218.92 28.9448 218.393 28.9448C217.723 28.9448 217.17 28.6684 216.642 28.233L215.88 29.1458C216.584 29.7739 217.48 30.0837 218.368 30.0837ZM223.312 30H224.627L225.163 28.6852H227.642L228.178 30H229.526L227.014 24.0959H225.825L223.312 30ZM225.624 27.5462L226.403 25.6452L227.181 27.5462H225.624ZM230.264 30H233.052C234.376 30 235.247 29.464 235.247 28.3921V28.3753C235.247 27.5881 234.828 27.1945 234.149 26.9349C234.568 26.7004 234.92 26.3319 234.92 25.6703V25.6536C234.92 25.2516 234.786 24.925 234.518 24.657C234.183 24.322 233.655 24.1378 232.985 24.1378H230.264V30ZM231.52 26.5078V25.2683H232.793C233.337 25.2683 233.639 25.4861 233.639 25.8713V25.8881C233.639 26.3235 233.278 26.5078 232.709 26.5078H231.52ZM231.52 28.8694V27.5797H233.011C233.672 27.5797 233.965 27.8226 233.965 28.2162V28.233C233.965 28.6684 233.622 28.8694 233.052 28.8694H231.52ZM236.199 30H237.488V24.1378H236.199V30ZM238.786 30H243.249V28.8527H240.067V27.6216H242.831V26.4743H240.067V25.2851H243.208V24.1378H238.786V30ZM244.229 30H245.518V28.1241H246.532L247.788 30H249.295L247.863 27.9063C248.609 27.63 249.119 27.0354 249.119 26.0891V26.0723C249.119 25.5196 248.944 25.059 248.617 24.7324C248.232 24.3471 247.654 24.1378 246.909 24.1378H244.229V30ZM245.518 26.9851V25.3018H246.8C247.428 25.3018 247.813 25.5866 247.813 26.1393V26.156C247.813 26.6502 247.453 26.9851 246.825 26.9851H245.518ZM251.478 30H252.768V25.327H254.552V24.1378H249.694V25.327H251.478V30ZM257.97 30.1005C259.779 30.1005 261.094 28.7354 261.094 27.0689V27.0521C261.094 25.3856 259.796 24.0373 257.987 24.0373C256.178 24.0373 254.863 25.4023 254.863 27.0689V27.0856C254.863 28.7522 256.161 30.1005 257.97 30.1005ZM257.987 28.9113C256.948 28.9113 256.211 28.0738 256.211 27.0689V27.0521C256.211 26.0472 256.931 25.2265 257.97 25.2265C259.008 25.2265 259.745 26.0639 259.745 27.0689V27.0856C259.745 28.0906 259.025 28.9113 257.987 28.9113ZM264.115 30.0837C265.379 30.0837 266.267 29.4305 266.267 28.2665V28.2497C266.267 27.228 265.597 26.8009 264.408 26.491C263.394 26.2314 263.143 26.1058 263.143 25.7206V25.7038C263.143 25.4191 263.403 25.193 263.897 25.193C264.391 25.193 264.902 25.4107 265.421 25.7708L266.091 24.7994C265.496 24.322 264.768 24.054 263.914 24.054C262.716 24.054 261.862 24.7575 261.862 25.8211V25.8378C261.862 27.0019 262.624 27.3285 263.805 27.63C264.785 27.8812 264.986 28.0487 264.986 28.3753V28.3921C264.986 28.7354 264.667 28.9448 264.14 28.9448C263.47 28.9448 262.917 28.6684 262.389 28.233L261.627 29.1458C262.331 29.7739 263.227 30.0837 264.115 30.0837Z" fill="#8B1232"/>
</svg>
